<?xml version="1.0" encoding="utf-8"?>
<!-- Generator: Adobe Illustrator 24.1.0, SVG Export Plug-In . SVG Version: 6.00 Build 0)  -->
<svg version="1.1" id="Calque_2_1_" xmlns="http://www.w3.org/2000/svg" xmlns:xlink="http://www.w3.org/1999/xlink" x="0px"
	 y="0px" viewBox="0 0 800 300" style="enable-background:new 0 0 800 300;" xml:space="preserve">
<style type="text/css">
	.st0{fill:#1C2D59;}
	.st1{fill:#4ABBD5;}
	.st2{fill:#53A6CD;}
</style>
<g>
	<polygon class="st0" points="14,115.26 76.22,235 106.74,119.96 	"/>
	<polygon class="st1" points="39.83,95.3 77.39,230.3 77.39,102.35 	"/>
	<polygon class="st2" points="77.55,74.14 77.23,233.79 113.92,87.12 	"/>
	<polygon class="st0" points="76.22,235 122,53.04 204.18,103.52 213.57,81.22 255.83,115.26 224.13,235 	"/>
</g>
<g>
	<path class="st0" d="M340.45,217.61v-1.91c-2.59,2.96-5.14,5.38-7.66,7.23c-2.52,1.86-5.25,3.27-8.19,4.23
		c-2.94,0.96-6.15,1.45-9.63,1.45c-4.61,0-8.88-0.98-12.81-2.93c-3.93-1.95-7.33-4.74-10.2-8.36c-2.87-3.62-5.05-7.88-6.53-12.77
		c-1.48-4.89-2.22-10.18-2.22-15.88c0-12.04,2.94-21.43,8.82-28.15c5.88-6.73,13.62-10.09,23.22-10.09c5.55,0,10.23,0.95,14.04,2.86
		c3.81,1.9,7.53,4.83,11.15,8.79v-28.44c0-3.95,0.79-6.94,2.36-8.96c1.58-2.02,3.82-3.03,6.74-3.03c2.92,0,5.16,0.93,6.74,2.79
		c1.58,1.86,2.36,4.6,2.36,8.22v84.96c0,3.67-0.85,6.42-2.54,8.26c-1.69,1.83-3.88,2.75-6.56,2.75c-2.64,0-4.81-0.95-6.53-2.86
		C341.3,223.85,340.45,221.14,340.45,217.61z M302.55,189.31c0,5.22,0.81,9.67,2.43,13.34c1.62,3.67,3.85,6.43,6.67,8.29
		c2.82,1.86,5.9,2.79,9.24,2.79c3.39,0,6.48-0.88,9.28-2.65c2.8-1.76,5.03-4.47,6.7-8.11c1.67-3.64,2.51-8.2,2.51-13.65
		c0-5.13-0.84-9.54-2.51-13.23c-1.67-3.69-3.93-6.51-6.77-8.47c-2.85-1.95-5.96-2.93-9.35-2.93c-3.53,0-6.68,1-9.46,3
		c-2.78,2-4.93,4.87-6.46,8.61C303.32,180.03,302.55,184.37,302.55,189.31z"/>
	<path class="st0" d="M387.72,141.33c-2.68,0-4.98-0.82-6.88-2.47c-1.91-1.65-2.86-3.97-2.86-6.99c0-2.73,0.98-4.97,2.93-6.74
		c1.95-1.76,4.22-2.65,6.81-2.65c2.49,0,4.7,0.8,6.63,2.4c1.93,1.6,2.89,3.93,2.89,6.99c0,2.96-0.94,5.28-2.82,6.95
		C392.55,140.49,390.31,141.33,387.72,141.33z M397.25,161.23v55.67c0,3.86-0.92,6.77-2.75,8.75c-1.83,1.98-4.16,2.96-6.99,2.96
		s-5.12-1.01-6.88-3.03c-1.76-2.02-2.65-4.92-2.65-8.68v-55.11c0-3.81,0.88-6.68,2.65-8.61c1.76-1.93,4.06-2.89,6.88-2.89
		s5.15,0.96,6.99,2.89C396.33,155.11,397.25,157.8,397.25,161.23z"/>
	<path class="st0" d="M434.65,160.95v2.33c3.39-4.47,7.09-7.75,11.11-9.84c4.02-2.09,8.64-3.14,13.87-3.14
		c5.08,0,9.62,1.11,13.62,3.32c4,2.21,6.99,5.34,8.96,9.39c1.27,2.35,2.09,4.89,2.47,7.62c0.38,2.73,0.56,6.21,0.56,10.44v35.85
		c0,3.86-0.88,6.77-2.65,8.75c-1.76,1.98-4.06,2.96-6.88,2.96c-2.87,0-5.2-1.01-6.99-3.03c-1.79-2.02-2.68-4.92-2.68-8.68V184.8
		c0-6.35-0.88-11.21-2.65-14.57c-1.76-3.36-5.28-5.05-10.55-5.05c-3.44,0-6.56,1.02-9.39,3.07c-2.82,2.05-4.89,4.86-6.21,8.43
		c-0.94,2.87-1.41,8.23-1.41,16.09v24.13c0,3.91-0.91,6.83-2.72,8.79c-1.81,1.95-4.15,2.93-7.02,2.93c-2.78,0-5.06-1.01-6.84-3.03
		c-1.79-2.02-2.68-4.92-2.68-8.68v-55.67c0-3.67,0.8-6.41,2.4-8.22c1.6-1.81,3.79-2.72,6.56-2.72c1.69,0,3.22,0.4,4.59,1.2
		c1.36,0.8,2.46,2,3.28,3.6C434.24,156.69,434.65,158.64,434.65,160.95z"/>
	<path class="st0" d="M502.89,151.98h4.59v-5.79c0-6.02,0.76-10.81,2.29-14.36c1.53-3.55,4.12-6.14,7.76-7.76
		c3.65-1.62,8.64-2.43,15-2.43c11.24,0,16.86,2.75,16.86,8.26c0,1.79-0.59,3.32-1.76,4.59c-1.18,1.27-2.56,1.91-4.16,1.91
		c-0.75,0-2.05-0.14-3.88-0.42c-1.84-0.28-3.39-0.42-4.66-0.42c-3.48,0-5.72,1.02-6.7,3.07c-0.99,2.05-1.48,4.97-1.48,8.79v4.59
		h4.73c7.34,0,11.01,2.21,11.01,6.63c0,3.15-0.98,5.15-2.93,6c-1.95,0.85-4.65,1.27-8.08,1.27h-4.73v51.02
		c0,3.81-0.91,6.72-2.72,8.71s-4.15,3-7.02,3c-2.73,0-5-1-6.81-3s-2.72-4.9-2.72-8.71v-51.02h-5.29c-2.87,0-5.08-0.65-6.63-1.94
		c-1.55-1.29-2.33-2.97-2.33-5.05C493.22,154.29,496.44,151.98,502.89,151.98z"/>
	<path class="st0" d="M554.33,216.9v-83.55c0-3.86,0.86-6.77,2.58-8.75c1.72-1.98,4.03-2.96,6.95-2.96c2.92,0,5.27,0.98,7.06,2.93
		c1.79,1.95,2.68,4.88,2.68,8.79v83.55c0,3.91-0.91,6.83-2.72,8.79c-1.81,1.95-4.15,2.93-7.02,2.93c-2.82,0-5.12-1.01-6.88-3.03
		C555.21,223.56,554.33,220.67,554.33,216.9z"/>
	<path class="st0" d="M665.61,189.45c0,5.74-0.9,11.03-2.68,15.88c-1.79,4.85-4.37,9.01-7.76,12.49c-3.39,3.48-7.43,6.15-12.14,8.01
		c-4.71,1.86-10,2.79-15.88,2.79c-5.83,0-11.08-0.94-15.74-2.82c-4.66-1.88-8.69-4.57-12.1-8.08c-3.41-3.5-6-7.64-7.76-12.42
		c-1.76-4.77-2.65-10.06-2.65-15.84c0-5.83,0.89-11.17,2.68-16.02c1.79-4.84,4.35-8.98,7.69-12.42c3.34-3.43,7.38-6.08,12.14-7.94
		c4.75-1.86,10-2.79,15.74-2.79c5.83,0,11.12,0.94,15.88,2.82c4.75,1.88,8.82,4.56,12.21,8.04c3.39,3.48,5.96,7.62,7.73,12.42
		C664.72,178.38,665.61,183.67,665.61,189.45z M646.27,189.45c0-7.86-1.73-13.97-5.19-18.35c-3.46-4.38-8.1-6.56-13.94-6.56
		c-3.76,0-7.08,0.98-9.95,2.93c-2.87,1.95-5.08,4.83-6.63,8.64c-1.55,3.81-2.33,8.26-2.33,13.34c0,5.03,0.76,9.43,2.29,13.2
		s3.72,6.64,6.56,8.64c2.85,2,6.2,3,10.06,3c5.83,0,10.48-2.2,13.94-6.6C644.54,203.3,646.27,197.22,646.27,189.45z"/>
	<path class="st0" d="M692.77,162.29l12.56,43.04l11.43-40.01c1.22-4.19,2.13-7.04,2.72-8.57c0.59-1.53,1.69-2.99,3.32-4.38
		c1.62-1.39,3.85-2.08,6.67-2.08c2.87,0,5.12,0.69,6.74,2.08c1.62,1.39,2.76,2.89,3.42,4.52c0.66,1.62,1.58,4.43,2.75,8.43
		l11.43,40.01l12.7-43.04c0.85-3.1,1.53-5.35,2.05-6.74c0.52-1.39,1.39-2.61,2.61-3.67c1.22-1.06,2.99-1.59,5.29-1.59
		c2.3,0,4.3,0.8,6,2.4c1.69,1.6,2.54,3.48,2.54,5.65c0,1.98-0.73,4.96-2.19,8.96l-15.74,46.15c-1.36,3.91-2.42,6.73-3.17,8.47
		c-0.75,1.74-1.94,3.29-3.56,4.66c-1.62,1.36-3.85,2.05-6.67,2.05c-2.92,0-5.21-0.73-6.88-2.19c-1.67-1.46-2.91-3.25-3.7-5.36
		c-0.8-2.12-1.67-4.87-2.61-8.26l-11.01-37.54l-10.66,37.54c-1.41,5.22-2.94,9.16-4.59,11.82c-1.65,2.66-4.54,3.99-8.68,3.99
		c-2.12,0-3.92-0.41-5.4-1.24c-1.48-0.82-2.72-2-3.7-3.53c-0.99-1.53-1.86-3.34-2.61-5.43c-0.75-2.09-1.34-3.75-1.76-4.97
		l-15.59-46.15c-1.55-4.33-2.33-7.31-2.33-8.96c0-2.07,0.82-3.93,2.47-5.57c1.65-1.65,3.67-2.47,6.07-2.47
		c3.2,0,5.36,0.91,6.49,2.72C690.3,154.82,691.5,157.91,692.77,162.29z"/>
</g>
</svg>
